# AST/ASF file generated using VICON BodyLanguage
# -----------------------------------------------
:version 1.10
:name VICON
:units
  mass 1.0
  length 0.45
  angle deg
:documentation
   .ast/.asf automatically generated from VICON data using
   VICON BodyBuilder and BodyLanguage model FoxedUp or BRILLIANT.MOD
:root
   order TX TY TZ RX RY RZ
   axis XYZ
   position 0 0 0  
   orientation 0 0 0 
:bonedata
  begin
     id 1 
     name lhipjoint
     direction 0.630082 -0.636569 0.44472 
     length 2.82754 
     axis 0 0 0  XYZ
  end
  begin
     id 2 
     name lfemur
     direction 0.34202 -0.939693 0  
     length 7.26371  
     axis 0 0 20  XYZ
    dof rx ry rz
    limits (-160.0 20.0)
           (-70.0 70.0)
           (-60.0 70.0)
  end
  begin
     id 3 
     name ltibia
     direction 0.34202 -0.939693 0   
     length 7.88616   
     axis 0 0 20   XYZ
    dof rx
    limits (-10.0 170.0)
  end
  begin
     id 4 
     name lfoot
     direction 0.0603448 -0.165796 0.984312   
     length 1.77861   
     axis -90 7.62852e-016 20   XYZ
    dof rx rz
    limits (-45.0 90.0)
           (-70.0 20.0)
  end
  begin
     id 5 
     name ltoes
     direction 1.53577e-011 -4.21876e-011 1   
     length 0.902235   
     axis -90 7.62852e-016 20   XYZ
    dof rx
    limits (-90.0 20.0)
  end
  begin
     id 6 
     name rhipjoint
     direction -0.656778 -0.61817 0.431866   
     length 2.9117  
     axis 0 0 0  XYZ 
  end
  begin
     id 7 
     name rfemur
     direction -0.34202 -0.939693 0   
     length 6.81603   
     axis 0 0 -20   XYZ
    dof rx ry rz
    limits (-160.0 20.0)
           (-70.0 70.0)
           (-70.0 60.0)
  end
  begin
     id 8 
     name rtibia
     direction -0.34202 -0.939693 0   
     length 8.05997   
     axis 0 0 -20   XYZ
    dof rx
    limits (-10.0 170.0)
 end
 begin
     id 9 
     name rfoot
     direction -0.0862404 -0.236944 0.967688   
     length 1.84899  
     axis -90 -7.62852e-016 -20   XYZ
    dof rx rz
    limits (-45.0 90.0)
           (-20.0 70.0)
  end
  begin
     id 10 
     name rtoes
     direction -1.53561e-011 -4.21798e-011 1   
     length 0.931579   
     axis -90 -7.62852e-016 -20   XYZ
    dof rx
    limits (-90.0 20.0)
  end
  begin
     id 11 
     name lowerback
     direction -0.0110203 0.991769 -0.127564   
     length 2.05686   
     axis 0 0 0   XYZ
    dof rx ry rz
    limits (-20.0 45.0)
           (-30.0 30.0)
           (-30.0 30.0)
  end
  begin
     id 12 
     name upperback
     direction 0.0109719 0.99993 -0.00432479   
     length 2.06234   
     axis 0 0 0   XYZ
    dof rx ry rz
    limits (-20.0 45.0)
           (-30.0 30.0)
           (-30.0 30.0)
  end
  begin
     id 13 
     name thorax
     direction 0.0173308 0.998351 0.0547306   
     length 2.09856   
     axis 0 0 0   XYZ
    dof rx ry rz
    limits (-20.0 45.0)
           (-30.0 30.0)
           (-30.0 30.0)
  end
  begin
     id 14 
     name lowerneck
     direction -0.0311736 0.989033 0.144366   
     length 1.98151   
     axis 0 0 0   XYZ
    dof rx ry rz
    limits (-20.0 45.0)
           (-30.0 30.0)
           (-30.0 30.0)
  end
  begin
     id 15 
     name upperneck
     direction 0.0421057 0.975772 -0.214698   
     length 2.01457   
     axis 0 0 0   XYZ
    dof rx ry rz
    limits (-20.0 45.0)
           (-30.0 30.0)
           (-30.0 30.0)
  end
  begin
     id 16
     name head
     direction 0.0136911 0.995958 -0.0887718  
     length 2.03562  
     axis 0 0 0   XYZ
    dof rx ry rz
    limits (-20.0 45.0)
           (-30.0 30.0)
           (-30.0 30.0)
  end
  begin
     id 17 
     name lclavicle
     direction 0.915335 0.396201 0.0720134  
     length 4.16217  
     axis 0 0 0   XYZ
    dof ry rz
    limits (-20.0 10.0)
           (0.0 20.0)
  end
  begin
     id 18 
     name lhumerus
     direction 1 -4.48965e-011 6.383e-018   
     length 4.93042   
     axis -180 -30 -90   XYZ
    dof rx ry rz
    limits (-60.0 90.0)
           (-90.0 90.0)
           (-90.0 90.0)
  end
  begin
     id 19
     name lradius
     direction 1 -4.48972e-011 8.8689e-027   
     length 3.68177   
     axis -180 -30 -90   XYZ
    dof rx
    limits (-10.0 170.0)
  end
  begin
     id 20
     name lwrist
     direction 1 -4.48953e-011 1.17971e-026   
     length 1.84089   
     axis -7.69454e-015 90 90   XYZ
    dof ry
    limits (-180.0 0.0)
 end
  begin
     id 21 
     name lhand
     direction 1 -4.49027e-011 2.35802e-026   
     length 0.721479   
     axis -1.50533e-014 90 90   XYZ
    dof rx rz
    limits (-90.0 90.0)
           (-45.0 45.0)
  end
  begin
     id 22 
     name lfingers
     direction 1 -4.48915e-011 4.72027e-026   
     length 0.581675   
     axis -3.01059e-014 90 90   XYZ
    dof rx
    limits (0.0 90.0)
  end
  begin
     id 23
     name lthumb
     direction 0.707107 -6.34948e-011 0.707107   
     length 0.835172   
     axis -90 45 -5.12164e-014   XYZ
    dof rx rz
    limits (-45.0 45.0)
           (-45.0 45.0)
  end
  begin
     id 24 
     name rclavicle
     direction -0.882781 0.469197 0.0234974   
     length 3.95647  
     axis 0 0 0   XYZ 
    dof ry rz
    limits (-10.0 20.0)
           (-20.0 0.0)
  end
  begin
     id 25 
     name rhumerus
     direction -1 -4.48965e-011 -1.54906e-018  
     length 5.07905   
     axis -180 30 90   XYZ
    dof rx ry rz
    limits (-90.0 60.0)
           (-90.0 90.0)
           (-90.0 90.0)
  end
  begin
     id 26 
     name rradius
     direction -1 -4.48972e-011 5.47489e-027   
     length 3.54394   
     axis -180 30 90   XYZ
    dof rx
    limits (-10.0 170.0)
  end
  begin
     id 27 
     name rwrist
     direction -1 -4.48955e-011 1.17969e-026   
     length 1.77197   
     axis -7.69454e-015 -90 -90   XYZ
    dof ry
    limits (-180.0 0.0)
  end
  begin
     id 28
     name rhand
     direction -1 -4.48982e-011 2.35888e-026   
     length 0.681156   
     axis -1.50533e-014 -90 -90   XYZ
    dof rx rz
    limits (-90.0 90.0)
           (-45.0 45.0)
  end
  begin
     id 29
     name rfingers
     direction -1 -4.48955e-011 4.71877e-026   
     length 0.549165   
     axis -3.01059e-014 -90 -90   XYZ
    dof rx
    limits (0.0 90.0)
  end
  begin
     id 30
     name rthumb
     direction -0.707107 -6.3491e-011 0.707107   
     length 0.788495   
     axis -90 -45 5.12164e-014   XYZ
    dof rx rz
    limits (-45.0 45.0)
           (-45.0 45.0)
  end
:hierarchy
  begin
    root lhipjoint rhipjoint lowerback
    lhipjoint lfemur
    lfemur ltibia
    ltibia lfoot
    lfoot ltoes
    rhipjoint rfemur
    rfemur rtibia
    rtibia rfoot
    rfoot rtoes
    lowerback upperback
    upperback thorax
    thorax lowerneck lclavicle rclavicle
    lowerneck upperneck
    upperneck head
    lclavicle lhumerus
    lhumerus lradius
    lradius lwrist
    lwrist lhand lthumb
    lhand lfingers
    rclavicle rhumerus
    rhumerus rradius
    rradius rwrist
    rwrist rhand rthumb
    rhand rfingers
  end

#!OML:ASF H:\Bending\Project 1\Capture day 1\Session 1\Subject.ASF
:FULLY-SPECIFIED
:DEGREES
238
root -9.95146 17.8806 -16.1917 -161.473 85.0082 -165.111
lowerback 5.6513 -0.768549 1.78451
upperback -2.80996 -0.693244 2.56087
thorax -6.0914 -0.339857 1.74115
lowerneck -26.8622 -4.12634 -6.73328
upperneck 28.7223 -4.71397 5.60154
head 14.7621 -1.83186 2.52028
rclavicle 1.03617e-014 -1.43125e-014
rhumerus -36.9688 20.3341 -88.2523
rradius 101.381
rwrist -7.51619
rhand -21.99 -25.5706
rfingers 7.12502
rthumb 4.41841 -55.5046
lclavicle 1.03617e-014 -1.43125e-014
lhumerus -44.8269 -35.0649 108.765
lradius 99.1503
lwrist 31.5852
lhand -46.4138 10.8008
lfingers 7.12502
lthumb -19.1436 39.8786
rfemur 7.14078 -2.87694 13.5684
rtibia -1.59028e-015
rfoot -9.07606 -16.938
rtoes -4.4103
lfemur -9.83118 -14.1705 -8.88039
ltibia 23.5893
lfoot -19.4731 7.04051
ltoes -24.5207
239
root -9.9394 17.8778 -16.1876 -162.741 84.9194 -166.224
lowerback 5.49142 -0.835787 1.69683
upperback -2.87712 -0.794198 2.54749
thorax -6.06762 -0.386349 1.78537
lowerneck -26.7014 -4.1247 -6.80753
upperneck 28.7244 -4.72199 5.70238
head 14.7356 -1.82968 2.5745
rclavicle -1.59556e-014 -5.56597e-015
rhumerus -35.268 20.4889 -87.8443
rradius 101.02
rwrist -7.29646
rhand -21.449 -25.6744
rfingers 7.12502
rthumb 4.9408 -55.5968
lclavicle -1.59556e-014 -5.56597e-015
lhumerus -43.2818 -34.7475 107.817
lradius 99.0225
lwrist 32.1031
lhand -45.9848 11.187
lfingers 7.12502
lthumb -18.731 40.3051
rfemur 7.39052 -2.97314 13.4879
rtibia -1.27222e-014
rfoot -9.13208 -16.9149
rtoes -4.22733
lfemur -9.65292 -14.0517 -8.98634
ltibia 23.5825
lfoot -19.3897 6.87451
ltoes -24.683
240
root -9.92939 17.8743 -16.184 -163.873 84.8313 -167.21
lowerback 5.34939 -0.900017 1.61854
upperback -2.93831 -0.889905 2.53152
thorax -6.04782 -0.430705 1.82098
lowerneck -26.61 -4.11843 -6.81789
upperneck 28.7871 -4.71457 5.70441
head 14.7441 -1.82725 2.58095
rclavicle -1.71685e-014 3.18055e-015
rhumerus -33.5109 20.594 -87.444
rradius 100.523
rwrist -6.95763
rhand -21.1406 -25.8966
rfingers 7.12502
rthumb 5.23861 -55.8118
lclavicle -1.71685e-014 3.18055e-015
lhumerus -41.6662 -34.45 106.87
lradius 98.8555
lwrist 32.7282
lhand -45.6611 11.58
lfingers 7.12502
lthumb -18.4197 40.7279
rfemur 7.62596 -3.06542 13.4153
rtibia -2.06736e-014
rfoot -9.19995 -16.8952
rtoes -4.05542
lfemur -9.49141 -13.9666 -9.08534
ltibia 23.5836
lfoot -19.3136 6.75585
ltoes -24.8859
241
root -9.92163 17.8702 -16.1803 -164.906 84.7567 -168.106
lowerback 5.22415 -0.952418 1.5465
upperback -2.99216 -0.9695 2.50645
thorax -6.03026 -0.467652 1.84184
lowerneck -26.6151 -4.10899 -6.75525
upperneck 28.935 -4.69504 5.6036
head 14.8045 -1.82491 2.5362
rclavicle 6.26793e-015 1.27222e-014
rhumerus -31.7154 20.6513 -87.0631
rradius 99.881
rwrist -6.61384
rhand -21.273 -26.2548
rfingers 7.12502
rthumb 5.11078 -56.1731
lclavicle 6.26793e-015 1.27222e-014
lhumerus -39.9975 -34.2001 105.919
lradius 98.6557
lwrist 33.3586
lhand -45.4463 11.9665
lfingers 7.12502
lthumb -18.213 41.1338
rfemur 7.83863 -3.14264 13.3442
rtibia 9.54166e-015
rfoot -9.2731 -16.8797
rtoes -3.8639
lfemur -9.34537 -13.9053 -9.182
ltibia 23.5929
lfoot -19.2514 6.67231
ltoes -25.0819
242
root -9.91605 17.8659 -16.1762 -165.827 84.7076 -168.912
lowerback 5.10499 -0.987579 1.47636
upperback -3.04012 -1.02643 2.47179
thorax -6.01048 -0.493791 1.84912
lowerneck -26.7038 -4.10033 -6.64434
upperneck 29.1479 -4.67166 5.4382
head 14.9083 -1.82358 2.45805
rclavicle -6.73383e-015 4.77083e-015
rhumerus -29.9081 20.6868 -86.6988
rradius 99.0943
rwrist -6.45495
rhand -21.8771 -26.7364
rfingers 7.12502
rthumb 4.52748 -56.6681
lclavicle -6.73383e-015 4.77083e-015
lhumerus -38.2665 -33.9917 104.957
lradius 98.4101
lwrist 33.8318
lhand -45.2917 12.3672
lfingers 7.12502
lthumb -18.0643 41.5484
rfemur 8.01128 -3.19473 13.2746
rtibia -2.38542e-014
rfoot -9.33789 -16.8689
rtoes -3.66193
lfemur -9.2216 -13.8473 -9.27357
ltibia 23.6062
lfoot -19.2013 6.61406
ltoes -25.3011
243
root -9.91234 17.8623 -16.1715 -166.622 84.6854 -169.625
lowerback 4.97849 -1.00608 1.40531
upperback -3.08546 -1.06156 2.43261
thorax -5.98416 -0.509257 1.84963
lowerneck -26.8308 -4.09783 -6.53084
upperneck 29.3702 -4.65452 5.26758
head 15.0254 -1.82499 2.37561
rclavicle -9.79014e-015 -1.59028e-015
rhumerus -28.1171 20.7248 -86.3365
rradius 98.1886
rwrist -6.662
rhand -22.7269 -27.3176
rfingers 7.12502
rthumb 3.70685 -57.2651
lclavicle -9.79014e-015 -1.59028e-015
lhumerus -36.4489 -33.794 103.982
lradius 98.0926
lwrist 33.9937
lhand -45.1383 12.8134
lfingers 7.12502
lthumb -17.9167 42.0081
rfemur 8.12865 -3.2219 13.2098
rtibia 0
rfoot -9.38103 -16.8632
rtoes -3.49459
lfemur -9.1321 -13.7781 -9.35408
ltibia 23.6178
lfoot -19.1544 6.57932
ltoes -25.6296
244
root -9.91015 17.8597 -16.1669 -167.296 84.6785 -170.257
lowerback 4.83728 -1.01372 1.33461
upperback -3.13109 -1.08203 2.39587
thorax -5.94995 -0.517395 1.8506
lowerneck -26.941 -4.10633 -6.45836
upperneck 29.5353 -4.65182 5.14349
head 15.1175 -1.83118 2.31499
rclavicle 1.29334e-014 -1.35174e-014
rhumerus -26.3639 20.7646 -85.9601
rradius 97.2127
rwrist -7.31918
rhand -23.4106 -27.9807
rfingers 7.12502
rthumb 3.04653 -57.9387
lclavicle 1.29334e-014 -1.35174e-014
lhumerus -34.5237 -33.5702 103.004
lradius 97.6778
lwrist 33.7734
lhand -44.9534 13.3188
lfingers 7.12502
lthumb -17.7388 42.5297
rfemur 8.18631 -3.23656 13.1527
rtibia 1.11319e-014
rfoot -9.39483 -16.8627
rtoes -3.42536
lfemur -9.08779 -13.7 -9.41927
ltibia 23.6229
lfoot -19.1013 6.57175
ltoes -26.1287
245
root -9.90931 17.8586 -16.1629 -167.883 84.6694 -170.843
lowerback 4.68536 -1.01818 1.26961
upperback -3.17755 -1.09724 2.36601
thorax -5.91055 -0.522919 1.85473
lowerneck -26.9927 -4.12709 -6.45135
upperneck 29.5906 -4.66641 5.09444
head 15.1532 -1.84296 2.29096
rclavicle -5.25537e-015 1.19271e-014
rhumerus -24.6575 20.7757 -85.5647
rradius 96.221
rwrist -8.3658
rhand -23.5243 -28.736
rfingers 7.12502
rthumb 2.93672 -58.6955
lclavicle -5.25537e-015 1.19271e-014
lhumerus -32.4879 -33.2945 102.038
lradius 97.152
lwrist 33.223
lhand -44.7478 13.8616
lfingers 7.12502
lthumb -17.541 43.0903
rfemur 8.19315 -3.25665 13.1031
rtibia -2.38542e-014
rfoot -9.38037 -16.8673
rtoes -3.49888
lfemur -9.09204 -13.6327 -9.4697
ltibia 23.6196
lfoot -19.0383 6.59378
ltoes -26.7596
246
root -9.90997 17.8586 -16.1603 -168.422 84.6455 -171.412
lowerback 4.53657 -1.02423 1.21821
upperback -3.22226 -1.11284 2.34173
thorax -5.87129 -0.528984 1.8571
lowerneck -26.9718 -4.15646 -6.51
upperneck 29.5134 -4.69551 5.12606
head 15.1186 -1.85872 2.30622
rclavicle -8.07563e-015 1.90833e-014
rhumerus -22.9929 20.7119 -85.1636
rradius 95.2503
rwrist -9.61285
rhand -22.8732 -29.619
rfingers 7.12502
rthumb 3.56558 -59.5689
lclavicle -8.07563e-015 1.90833e-014
lhumerus -30.3607 -32.9643 101.095
lradius 96.5161
lwrist 32.5021
lhand -44.5624 14.3982
lfingers 7.12502
lthumb -17.3626 43.6427
rfemur 8.16572 -3.29393 13.0582
rtibia 3.18055e-015
rfoot -9.34529 -16.8756
rtoes -3.71642
lfemur -9.13819 -13.5999 -9.50977
ltibia 23.6094
lfoot -18.9706 6.6413
ltoes -27.385
247
root -9.91247 17.8594 -16.1592 -168.927 84.6085 -171.965
lowerback 4.40745 -1.03046 1.18836
upperback -3.26095 -1.12671 2.31651
thorax -5.83745 -0.535094 1.84655
lowerneck -26.8923 -4.18731 -6.61729
upperneck 29.3147 -4.73293 5.23095
head 15.0211 -1.87466 2.35619
rclavicle 1.83876e-014 -1.74931e-014
rhumerus -21.3579 20.5388 -84.7828
rradius 94.3043
rwrist -10.8183
rhand -21.5854 -30.6357
rfingers 7.12502
rthumb 4.80907 -60.5612
lclavicle 1.83876e-014 -1.74931e-014
lhumerus -28.178 -32.5986 100.171
lradius 95.7796
lwrist 31.8169
lhand -44.4353 14.8887
lfingers 7.12502
lthumb -17.2402 44.144
rfemur 8.11897 -3.34547 13.0154
rtibia 9.54166e-015
rfoot -9.29992 -16.885
rtoes -4.0277
lfemur -9.21219 -13.6141 -9.54408
ltibia 23.5961
lfoot -18.9107 6.702
ltoes -27.8206
248
root -9.91716 17.8608 -16.1593 -169.366 84.574 -172.459
lowerback 4.30867 -1.02959 1.1857
upperback -3.29019 -1.12926 2.28218
thorax -5.81205 -0.537008 1.81074
lowerneck -26.7848 -4.21249 -6.74915
upperneck 29.0322 -4.77227 5.3948
head 14.8833 -1.88661 2.43259
rclavicle -1.11816e-014 -3.49861e-014
rhumerus -19.7436 20.2542 -84.4474
rradius 93.3578
rwrist -11.783
rhand -20.0918 -31.7096
rfingers 7.12502
rthumb 6.25122 -61.5974
lclavicle -1.11816e-014 -3.49861e-014
lhumerus -25.9798 -32.2275 99.2512
lradius 94.9502
lwrist 31.3419
lhand -44.3703 15.3192
lfingers 7.12502
lthumb -17.1776 44.5799
rfemur 8.05851 -3.39416 12.9753
rtibia -1.27222e-014
rfoot -9.25189 -16.8923
rtoes -4.35347
lfemur -9.29971 -13.6649 -9.57332
ltibia 23.585
lfoot -18.8709 6.75916
ltoes -27.9412
249
root -9.92415 17.8626 -16.1597 -169.675 84.5622 -172.829
lowerback 4.24127 -1.01275 1.21194
upperback -3.30984 -1.10892 2.23423
thorax -5.79586 -0.529199 1.74301
lowerneck -26.6818 -4.22839 -6.88432
upperneck 28.7167 -4.80903 5.59814
head 14.7342 -1.89217 2.52536
rclavicle -4.34841e-015 -3.49861e-014
rhumerus -18.1536 19.8931 -84.1653
rradius 92.3751
rwrist -12.4176
rhand -18.9606 -32.6977
rfingers 7.12502
rthumb 7.34321 -62.5502
lclavicle -4.34841e-015 -3.49861e-014
lhumerus -23.8003 -31.8771 98.3234
lradius 94.0276
lwrist 31.1613
lhand -44.3244 15.7002
lfingers 7.12502
lthumb -17.1335 44.9648
rfemur 7.97999 -3.41901 12.9426
rtibia -9.54166e-015
rfoot -9.20299 -16.8956
rtoes -4.62421
lfemur -9.39305 -13.7222 -9.59332
ltibia 23.5818
lfoot -18.8559 6.79845
ltoes -27.7559
250
root -9.93317 17.8649 -16.1599 -169.789 84.5836 -173.01
lowerback 4.19869 -0.975462 1.26363
upperback -3.32361 -1.05976 2.17577
thorax -5.78889 -0.508469 1.64794
lowerneck -26.6069 -4.23557 -7.00707
upperneck 28.4183 -4.83998 5.81253
head 14.5994 -1.89162 2.62165
rclavicle -3.21534e-014 -7.15625e-015
rhumerus -16.605 19.5128 -83.9204
rradius 91.3317
rwrist -12.7525
rhand -18.6371 -33.4799
rfingers 7.12502
rthumb 7.6554 -63.3213
lclavicle -3.21534e-014 -7.15625e-015
lhumerus -21.6634 -31.5577 97.3886
lradius 93.0053
lwrist 31.254
lhand -44.2261 16.0541
lfingers 7.12502
lthumb -17.0389 45.3269
rfemur 7.87505 -3.40896 12.9239
rtibia -1.74931e-014
rfoot -9.14977 -16.8949
rtoes -4.81094
lfemur -9.49445 -13.7496 -9.59739
ltibia 23.5924
lfoot -18.8578 6.81146
ltoes -27.4136
251
root -9.94364 17.8676 -16.16 -169.683 84.6312 -172.981
lowerback 4.17277 -0.921928 1.33173
upperback -3.33736 -0.987249 2.11756
thorax -5.79196 -0.476813 1.54225
lowerneck -26.5706 -4.23688 -7.10536
upperneck 28.1743 -4.86171 6.00063
head 14.4954 -1.8872 2.70557
rclavicle 1.3244e-014 -2.14687e-014
rhumerus -15.1198 19.1703 -83.6801
rradius 90.2239
rwrist -12.8962
rhand -19.2298 -34.0384
rfingers 7.12502
rthumb 7.08331 -63.8999
lclavicle 1.3244e-014 -2.14687e-014
lhumerus -19.5831 -31.2627 96.4657
lradius 91.8759
lwrist 31.5238
lhand -44.0088 16.3954
lfingers 7.12502
lthumb -16.8297 45.6861
rfemur 7.7398 -3.37123 12.9229
rtibia -1.11319e-014
rfoot -9.08683 -16.893
rtoes -4.93515
lfemur -9.61353 -13.7212 -9.58129
ltibia 23.6218
lfoot -18.8586 6.79883
ltoes -27.1494
252
root -9.95485 17.8706 -16.1603 -169.391 84.6818 -172.777
lowerback 4.15906 -0.865181 1.40325
upperback -3.35591 -0.908642 2.07441
thorax -5.80672 -0.441804 1.45013
lowerneck -26.5746 -4.23425 -7.16601
upperneck 28.0046 -4.86898 6.11997
head 14.4282 -1.88135 2.7591
rclavicle -1.74309e-014 1.90833e-014
rhumerus -13.7098 18.9021 -83.4133
rradius 89.0638
rwrist -12.9671
rhand -20.4708 -34.4582
rfingers 7.12502
rthumb 5.88529 -64.3565
lclavicle -1.74309e-014 1.90833e-014
lhumerus -17.5664 -30.9749 95.5846
lradius 90.6364
lwrist 31.8533
lhand -43.6423 16.7145
lfingers 7.12502
lthumb -16.4769 46.0348
rfemur 7.57994 -3.32915 12.9379
rtibia -7.95139e-015
rfoot -9.01189 -16.8932
rtoes -5.04292
lfemur -9.76088 -13.634 -9.54613
ltibia 23.6724
lfoot -18.839 6.76684
ltoes -27.1582
